<svg width="719" height="252" viewBox="0 0 719 252" fill="none" xmlns="http://www.w3.org/2000/svg">
<path d="M166.705 182.392L166.543 114.447L133.08 170.421H121.221L87.9204 115.903V182.392H63.229V69.1508H84.9964L127.556 139.522L169.467 69.1508H191.072L191.397 182.392H166.705Z" fill="white"/>
<path d="M251.838 94.0638C265.375 94.0638 275.771 97.2992 283.027 103.77C290.283 110.133 293.911 119.786 293.911 132.727V182.392H270.194V171.553C265.429 179.642 256.549 183.686 243.554 183.686C236.839 183.686 230.991 182.553 226.01 180.289C221.136 178.024 217.4 174.896 214.801 170.906C212.202 166.915 210.902 162.386 210.902 157.317C210.902 149.228 213.935 142.865 219.999 138.228C226.172 133.59 235.648 131.272 248.427 131.272H268.57C268.57 125.771 266.891 121.565 263.534 118.653C260.177 115.633 255.141 114.124 248.427 114.124C243.77 114.124 239.168 114.879 234.619 116.388C230.179 117.79 226.389 119.732 223.248 122.212L214.151 104.579C218.916 101.236 224.602 98.6473 231.208 96.8139C237.922 94.9805 244.799 94.0638 251.838 94.0638ZM249.889 166.7C254.221 166.7 258.065 165.729 261.422 163.788C264.779 161.739 267.162 158.773 268.57 154.89V145.993H251.188C240.792 145.993 235.594 149.39 235.594 156.185C235.594 159.42 236.839 162.008 239.33 163.95C241.929 165.783 245.449 166.7 249.889 166.7Z" fill="white"/>
<path d="M341.05 106.844C344.082 102.638 348.143 99.4562 353.233 97.2992C358.431 95.1423 364.387 94.0638 371.102 94.0638V117.359C368.286 117.143 366.391 117.036 365.416 117.036C358.161 117.036 352.475 119.085 348.36 123.183C344.245 127.173 342.187 133.213 342.187 141.301V182.392H316.846V95.358H341.05V106.844Z" fill="white"/>
<path d="M423.694 148.258L411.511 160.229V182.392H386.17V62.3563H411.511V130.301L448.548 95.358H478.762L442.375 132.242L482.011 182.392H451.309L423.694 148.258Z" fill="white"/>
<path d="M575.208 139.198C575.208 139.522 575.045 141.787 574.72 145.993H508.606C509.797 151.385 512.613 155.645 517.053 158.773C521.493 161.9 527.016 163.464 533.622 163.464C538.171 163.464 542.178 162.817 545.643 161.523C549.217 160.121 552.52 157.964 555.552 155.052L569.035 169.612C560.804 178.994 548.784 183.686 532.973 183.686C523.118 183.686 514.4 181.799 506.819 178.024C499.239 174.141 493.391 168.803 489.275 162.008C485.16 155.214 483.102 147.503 483.102 138.875C483.102 130.355 485.106 122.698 489.113 115.903C493.228 109.001 498.805 103.662 505.845 99.8876C512.992 96.0051 520.952 94.0638 529.724 94.0638C538.279 94.0638 546.022 95.8972 552.953 99.5641C559.884 103.231 565.299 108.515 569.197 115.418C573.204 122.212 575.208 130.139 575.208 139.198ZM529.886 113.153C524.146 113.153 519.327 114.771 515.429 118.006C511.53 121.242 509.148 125.663 508.281 131.272H551.329C550.462 125.771 548.08 121.403 544.181 118.168C540.283 114.825 535.517 113.153 529.886 113.153Z" fill="white"/>
<path d="M648.447 178.186C645.956 180.019 642.87 181.421 639.187 182.392C635.614 183.254 631.823 183.686 627.816 183.686C617.42 183.686 609.352 181.044 603.612 175.759C597.981 170.474 595.165 162.709 595.165 152.464V116.712H581.683V97.2992H595.165V76.107H620.506V97.2992H642.274V116.712H620.506V152.14C620.506 155.807 621.427 158.665 623.268 160.714C625.217 162.655 627.925 163.626 631.39 163.626C635.397 163.626 638.808 162.548 641.624 160.391L648.447 178.186Z" fill="white"/>
<path d="M656.2 168.911C656.2 174.867 651.352 179.695 645.371 179.695C639.39 179.695 634.541 174.867 634.541 168.911C634.541 162.954 639.39 158.126 645.371 158.126C651.352 158.126 656.2 162.954 656.2 168.911Z" fill="#AAE300"/>
<path d="M541.947 191.675C547.113 191.675 551.598 192.526 555.402 194.23C559.263 195.933 562.215 198.374 564.259 201.553C566.303 204.733 567.325 208.508 567.325 212.88C567.325 217.195 566.303 220.97 564.259 224.206C562.215 227.385 559.263 229.827 555.402 231.53C551.598 233.233 547.113 234.085 541.947 234.085H528.491V251.287H517.42V191.675H541.947ZM541.436 224.717C546.262 224.717 549.923 223.695 552.421 221.651C554.92 219.607 556.169 216.684 556.169 212.88C556.169 209.076 554.92 206.152 552.421 204.108C549.923 202.064 546.262 201.042 541.436 201.042H528.491V224.717H541.436Z" fill="#AAE300"/>
<path d="M587.077 212.454C590.142 207.685 595.536 205.3 603.257 205.3V215.435C602.349 215.264 601.526 215.179 600.787 215.179C596.643 215.179 593.407 216.4 591.079 218.841C588.751 221.225 587.588 224.689 587.588 229.231V251.287H576.942V205.811H587.077V212.454Z" fill="#AAE300"/>
<path d="M632.31 251.883C627.712 251.883 623.567 250.89 619.877 248.903C616.186 246.916 613.291 244.162 611.19 240.642C609.147 237.065 608.125 233.034 608.125 228.549C608.125 224.064 609.147 220.062 611.19 216.542C613.291 213.022 616.186 210.268 619.877 208.281C623.567 206.294 627.712 205.3 632.31 205.3C636.966 205.3 641.139 206.294 644.829 208.281C648.519 210.268 651.386 213.022 653.43 216.542C655.531 220.062 656.581 224.064 656.581 228.549C656.581 233.034 655.531 237.065 653.43 240.642C651.386 244.162 648.519 246.916 644.829 248.903C641.139 250.89 636.966 251.883 632.31 251.883ZM632.31 242.771C636.228 242.771 639.464 241.465 642.019 238.854C644.573 236.242 645.851 232.807 645.851 228.549C645.851 224.291 644.573 220.856 642.019 218.245C639.464 215.633 636.228 214.327 632.31 214.327C628.393 214.327 625.157 215.633 622.602 218.245C620.104 220.856 618.855 224.291 618.855 228.549C618.855 232.807 620.104 236.242 622.602 238.854C625.157 241.465 628.393 242.771 632.31 242.771Z" fill="#AAE300"/>
<path d="M240.465 25L230.209 1.228H236.152L245.118 22.2832H241.62L250.721 1.228H256.189L245.899 25H240.465ZM286.326 10.8047H297.771V15.0837H286.326V10.8047ZM286.734 20.5852H299.673V25H281.266V1.228H299.231V5.6428H286.734V20.5852ZM327.143 25V1.228H331.694L345.719 18.3438H343.512V1.228H348.945V25H344.429L330.369 7.88416H332.576V25H327.143ZM382.587 25V5.71072H374.98V1.228H395.695V5.71072H388.088V25H382.587ZM417.43 25L428.025 1.228H433.459L444.088 25H438.315L429.621 4.01272H431.795L423.067 25H417.43ZM422.728 19.906L424.188 15.7289H436.413L437.908 19.906H422.728ZM477.458 25.4075C475.557 25.4075 473.734 25.1585 471.991 24.6604C470.247 24.1397 468.844 23.4718 467.78 22.6568L469.648 18.5136C470.666 19.2381 471.866 19.8381 473.247 20.3135C474.651 20.7663 476.066 20.9927 477.492 20.9927C478.579 20.9927 479.451 20.8908 480.107 20.6871C480.786 20.4607 481.284 20.155 481.601 19.7702C481.918 19.3853 482.077 18.9438 482.077 18.4457C482.077 17.8118 481.828 17.3137 481.33 16.9515C480.832 16.5666 480.175 16.261 479.36 16.0346C478.545 15.7855 477.639 15.5591 476.643 15.3554C475.67 15.129 474.685 14.8573 473.689 14.5403C472.715 14.2234 471.821 13.8158 471.006 13.3178C470.191 12.8197 469.523 12.1631 469.002 11.3481C468.504 10.533 468.255 9.4916 468.255 8.22376C468.255 6.86536 468.617 5.63148 469.342 4.52212C470.089 3.39012 471.198 2.49584 472.67 1.83928C474.164 1.16008 476.032 0.82048 478.273 0.82048C479.768 0.82048 481.239 1.0016 482.688 1.36384C484.137 1.70344 485.416 2.22416 486.526 2.926L484.828 7.10308C483.718 6.46916 482.609 6.00504 481.5 5.71072C480.39 5.39376 479.303 5.23528 478.239 5.23528C477.175 5.23528 476.304 5.3598 475.624 5.60884C474.945 5.85788 474.459 6.18616 474.164 6.59368C473.87 6.97856 473.723 7.43136 473.723 7.95208C473.723 8.56336 473.972 9.06144 474.47 9.44632C474.968 9.80856 475.624 10.1029 476.44 10.3293C477.255 10.5557 478.149 10.7821 479.122 11.0085C480.119 11.2349 481.103 11.4952 482.077 11.7896C483.073 12.0839 483.979 12.4801 484.794 12.9782C485.609 13.4762 486.265 14.1328 486.763 14.9478C487.284 15.7629 487.544 16.793 487.544 18.0382C487.544 19.374 487.171 20.5965 486.424 21.7059C485.677 22.8152 484.556 23.7095 483.062 24.3887C481.59 25.0679 479.722 25.4075 477.458 25.4075Z" fill="#AAE300"/>
</svg>
